# xmcd
#
# Track frame offsets: 
#        150
#        27523
#        56091
#        86001
#        112503
#        140842
#        165232
#        196134
#        223284
#        248400
#
# Disc length: 3708 seconds
#
# Revision: 0
# Processed by: cddbd v1.5.2PL0 Copyright (c) Steve Scherf et al.
# Submitted via: ExactAudioCopy v1.0b3
#
DISCID=830e7a0a
DTITLE=Phuong Hong Que - Em Toi
DYEAR=1900
DGENRE=
TTITLE0=Em toi
TTITLE1=Chim sao xa roi
TTITLE2=Xin dung trach da da
TTITLE3=Dieu buon phuong Nam
TTITLE4=Noi buon chim sao
TTITLE5=Tam lua dao
TTITLE6=Canh dieu que huong
TTITLE7=Tinh dang ly kho qua
TTITLE8=Nho em ganh hat dua do
TTITLE9=Dung trach la dieu bong
EXTD=
EXTT0=
EXTT1=
EXTT2=
EXTT3=
EXTT4=
EXTT5=
EXTT6=
EXTT7=
EXTT8=
EXTT9=
PLAYORDER=
